<?xml version="1.0" encoding="utf-8"?>
<!-- Generator: Adobe Illustrator 19.0.0, SVG Export Plug-In . SVG Version: 6.00 Build 0)  -->
<svg version="1.1" id="Layer_1" xmlns="http://www.w3.org/2000/svg" xmlns:xlink="http://www.w3.org/1999/xlink" x="0px" y="0px"
	 viewBox="0 0 18.9 26" style="enable-background:new 0 0 18.9 26;" xml:space="preserve">
<style type="text/css">
	.st0{fill:#652D88;}
</style>
<g id="Location_Pin_1">
	<g id="XMLID_50_">
		<path id="XMLID_51_" class="st0" d="M9.5,4.7c-2.6,0-4.7,2.1-4.7,4.7c0,2.6,2.1,4.7,4.7,4.7c2.6,0,4.7-2.1,4.7-4.7
			C14.2,6.8,12.1,4.7,9.5,4.7z M9.5,13c-2,0-3.5-1.6-3.5-3.5c0-2,1.6-3.5,3.5-3.5c2,0,3.5,1.6,3.5,3.5C13,11.4,11.4,13,9.5,13z
			 M9.5,0C4.2,0,0,4.2,0,9.5C0,17.1,9.5,26,9.5,26s9.5-8.9,9.5-16.5C18.9,4.2,14.7,0,9.5,0z M9.5,24.2c0,0-8.3-7.7-8.3-14.8
			c0-4.6,3.7-8.3,8.3-8.3s8.3,3.7,8.3,8.3C17.7,16.5,9.5,24.2,9.5,24.2z"/>
	</g>
</g>
</svg>
