<svg xmlns="http://www.w3.org/2000/svg" width="122" height="95.044" viewBox="0 0 122 95.044"><path d="M6.665,16.971h18.71V0h6.545V43.374H25.374V23.118H6.665V43.374H.12V0H6.665Z" transform="translate(-0.045)"/><path d="M64.05,46.838a21.255,21.255,0,0,1,6.632-15.766,22.225,22.225,0,0,1,16.164-6.5A22.338,22.338,0,0,1,103.1,31.115a21.8,21.8,0,0,1,6.588,16.077,21.666,21.666,0,0,1-6.632,16.12A22.673,22.673,0,0,1,86.672,69.77a21.746,21.746,0,0,1-16.12-6.588A22.155,22.155,0,0,1,64.05,46.838Zm10.1.174q0,6.418,3.428,10.146a12.048,12.048,0,0,0,9.265,3.775A12.034,12.034,0,0,0,96.1,57.2q3.465-3.735,3.471-9.973T96.1,37.256a12.07,12.07,0,0,0-9.265-3.775,11.963,11.963,0,0,0-9.178,3.775A13.772,13.772,0,0,0,74.147,47.011Z" transform="translate(-24.278 -9.313)"/><path d="M105.224.19l10.271,22.392L126.572.277l11.159,22.3L147.877.19h10.146L137.483,42.353,126.566,17.1,115.532,42.353,95.04.19Z" transform="translate(-36.024 -0.072)"/><path d="M31.874,83.748v37H25.317v-37H0v-5.9H25.317V67.82h6.557V77.849H36.55v5.9Z" transform="translate(0 -25.706)"/><path d="M64.34,96.985A13.6,13.6,0,0,1,68.581,86.9a14.964,14.964,0,0,1,20.734.025,14.647,14.647,0,0,1-.025,20.591,14.5,14.5,0,0,1-10.476,4.129,13.889,13.889,0,0,1-10.308-4.216A14.109,14.109,0,0,1,64.34,96.985ZM70.8,97.1a9.235,9.235,0,0,0,2.192,6.489,8.519,8.519,0,0,0,11.86.025,10.281,10.281,0,0,0,0-12.755,8.419,8.419,0,0,0-11.8,0A8.829,8.829,0,0,0,70.8,97.1Z" transform="translate(-24.387 -31.362)"/></svg>