<?xml version="1.0" encoding="utf-8"?>
<!-- Generator: Adobe Illustrator 19.0.0, SVG Export Plug-In . SVG Version: 6.00 Build 0)  -->
<svg version="1.1" id="Layer_1" xmlns="http://www.w3.org/2000/svg" xmlns:xlink="http://www.w3.org/1999/xlink" x="0px" y="0px"
	 viewBox="0 0 25.1 22" style="enable-background:new 0 0 25.1 22;" xml:space="preserve">
<style type="text/css">
	.st0{fill:#652D88;}
	.st1{fill:none;stroke:#652D88;stroke-miterlimit:10;}
</style>
<g>
	<g>
		<path class="st0" d="M21.2,22H3.9C1.8,22,0,20.2,0,18.1V3.9C0,1.8,1.8,0,3.9,0h17.3c2.2,0,3.9,1.8,3.9,3.9v14.1
			C25.1,20.2,23.4,22,21.2,22z M3.9,1.6c-1.3,0-2.4,1.1-2.4,2.4v14.1c0,1.3,1.1,2.4,2.4,2.4h17.3c1.3,0,2.4-1.1,2.4-2.4V3.9
			c0-1.3-1.1-2.4-2.4-2.4H3.9z"/>
	</g>
	<g>
		<rect x="0.8" y="4.7" class="st0" width="23.6" height="1.6"/>
	</g>
	<g>
		<circle class="st1" cx="4.7" cy="3.1" r="0.8"/>
	</g>
	<g>
		<circle class="st1" cx="7.1" cy="3.1" r="0.8"/>
	</g>
	<g>
		<circle class="st1" cx="9.5" cy="3.1" r="0.8"/>
	</g>
	<path class="st0" d="M16.1,9.4H4.3c-0.4,0-0.8,0.2-0.8,0.4c0,0.2,0.4,0.4,0.8,0.4h11.8c0.4,0,0.8-0.2,0.8-0.4
		C16.9,9.6,16.6,9.4,16.1,9.4z"/>
	<path class="st0" d="M4.3,13.4h7.1c0.4,0,0.8-0.2,0.8-0.4s-0.4-0.4-0.8-0.4H4.3c-0.4,0-0.8,0.2-0.8,0.4S3.9,13.4,4.3,13.4z"/>
	<path class="st0" d="M14.6,15.7H4.3c-0.4,0-0.8,0.2-0.8,0.4c0,0.2,0.4,0.4,0.8,0.4h10.2c0.4,0,0.8-0.2,0.8-0.4
		C15.3,15.9,15,15.7,14.6,15.7z"/>
</g>
</svg>
