<?xml version="1.0" encoding="utf-8"?>
<!-- Generator: Adobe Illustrator 19.0.0, SVG Export Plug-In . SVG Version: 6.00 Build 0)  -->
<svg version="1.1" id="Layer_1" xmlns="http://www.w3.org/2000/svg" xmlns:xlink="http://www.w3.org/1999/xlink" x="0px" y="0px"
	 viewBox="0 0 16.7 24" style="enable-background:new 0 0 16.7 24;" xml:space="preserve">
<style type="text/css">
	.st0{fill:#652D88;}
	.st1{fill:none;stroke:#652D88;stroke-miterlimit:10;}
</style>
<g>
	<g>
		<g>
			<g>
				<path class="st0" d="M14.3,24H2.4C1.1,24,0,22.9,0,21.6V2.4C0,1.1,1.1,0,2.4,0h11.9c1.3,0,2.4,1.1,2.4,2.4v19.2
					C16.7,22.9,15.6,24,14.3,24z M2.4,1.6c-0.4,0-0.8,0.4-0.8,0.8v19.2c0,0.4,0.4,0.8,0.8,0.8h11.9c0.4,0,0.8-0.4,0.8-0.8V2.4
					c0-0.4-0.4-0.8-0.8-0.8H2.4z"/>
			</g>
		</g>
	</g>
	<circle class="st1" cx="8.3" cy="19" r="1.6"/>
</g>
</svg>
